# Blender v2.79 (sub 0) OBJ File: 'circleTarget.blend'
# www.blender.org
mtllib circleTarget.mtl
o Cube
v 1.102761 0.156314 -1.120811
v 1.409759 0.139862 -0.268424
v 0.840196 0.156314 -0.839900
v 0.268424 0.139862 -1.432836
v 0.268424 0.074182 -1.432836
v 0.268424 0.139862 -1.073671
v 1.409760 0.074182 -0.268424
v 1.073293 0.139862 -0.268424
v -1.102761 0.156314 -1.120811
v -1.409759 0.139862 -0.268424
v -0.840196 0.156314 -0.839900
v -0.268424 0.139862 -1.432836
v -0.268424 0.074182 -1.432836
v -0.268424 0.139862 -1.073671
v -1.409760 0.074182 -0.268424
v -1.073293 0.139862 -0.268424
v 1.102761 0.156314 1.120811
v 1.409759 0.139862 0.268424
v 0.840196 0.156314 0.839900
v 0.268424 0.139862 1.432836
v 0.268424 0.074182 1.432836
v 0.268424 0.139862 1.073671
v 1.409760 0.074182 0.268424
v 1.073293 0.139862 0.268424
v -1.102761 0.156314 1.120811
v -1.409759 0.139862 0.268424
v -0.840196 0.156314 0.839900
v -0.268424 0.139862 1.432836
v -0.268424 0.074182 1.432836
v -0.268424 0.139862 1.073671
v -1.409760 0.074182 0.268424
v -1.073293 0.139862 0.268424
v 1.102760 0.000000 -1.120811
v 1.409760 0.000000 -0.268424
v 0.840196 0.000000 -0.839900
v 0.268424 0.000000 -1.432836
v 1.102761 -0.156314 -1.120811
v 1.409759 -0.139862 -0.268424
v 0.840196 -0.156314 -0.839900
v 0.268424 -0.139862 -1.432836
v 0.268424 0.000000 -1.073672
v 0.268424 -0.074182 -1.432836
v 0.268424 -0.139862 -1.073671
v 1.073293 0.000000 -0.268424
v 1.409760 -0.074182 -0.268424
v 1.073293 -0.139862 -0.268424
v -1.102760 0.000000 -1.120811
v -1.409760 0.000000 -0.268424
v -0.840196 0.000000 -0.839900
v -0.268424 0.000000 -1.432836
v -1.102761 -0.156314 -1.120811
v -1.409759 -0.139862 -0.268424
v -0.840196 -0.156314 -0.839900
v -0.268424 -0.139862 -1.432836
v -0.268424 0.000000 -1.073672
v -0.268424 -0.074182 -1.432836
v -0.268424 -0.139862 -1.073671
v -1.073293 0.000000 -0.268424
v -1.409760 -0.074182 -0.268424
v -1.073293 -0.139862 -0.268424
v 1.102760 0.000000 1.120811
v 1.409760 0.000000 0.268424
v 0.840196 0.000000 0.839900
v 0.268424 0.000000 1.432836
v 1.102761 -0.156314 1.120811
v 1.409759 -0.139862 0.268424
v 0.840196 -0.156314 0.839900
v 0.268424 -0.139862 1.432836
v 0.268424 0.000000 1.073672
v 0.268424 -0.074182 1.432836
v 0.268424 -0.139862 1.073671
v 1.073293 0.000000 0.268424
v 1.409760 -0.074182 0.268424
v 1.073293 -0.139862 0.268424
v -1.102760 0.000000 1.120811
v -1.409760 0.000000 0.268424
v -0.840196 0.000000 0.839900
v -0.268424 0.000000 1.432836
v -1.102761 -0.156314 1.120811
v -1.409759 -0.139862 0.268424
v -0.840196 -0.156314 0.839900
v -0.268424 -0.139862 1.432836
v -0.268424 0.000000 1.073672
v -0.268424 -0.074182 1.432836
v -0.268424 -0.139862 1.073671
v -1.073293 0.000000 0.268424
v -1.409760 -0.074182 0.268424
v -1.073293 -0.139862 0.268424
vn -0.0058 1.0000 0.0054
vn 0.9408 0.0000 -0.3389
vn -0.9259 -0.0000 0.3777
vn -1.0000 -0.0000 0.0000
vn 0.3503 0.0000 -0.9366
vn -0.3784 -0.0000 0.9256
vn 0.0000 0.0000 1.0000
vn 0.0058 1.0000 0.0054
vn -0.9408 0.0000 -0.3389
vn 0.9259 -0.0000 0.3777
vn 1.0000 -0.0000 0.0000
vn -0.3503 0.0000 -0.9366
vn 0.3784 -0.0000 0.9256
vn -0.0058 1.0000 -0.0054
vn 0.9408 0.0000 0.3389
vn -0.9259 -0.0000 -0.3777
vn 0.3503 0.0000 0.9366
vn -0.3784 -0.0000 -0.9256
vn 0.0000 0.0000 -1.0000
vn 0.0058 1.0000 -0.0054
vn -0.9408 0.0000 0.3389
vn 0.9259 -0.0000 -0.3777
vn -0.3503 0.0000 0.9366
vn 0.3784 -0.0000 -0.9256
vn 0.0000 1.0000 0.0000
vn -0.0058 -1.0000 0.0054
vn 0.0058 -1.0000 0.0054
vn -0.0058 -1.0000 -0.0054
vn 0.0058 -1.0000 -0.0054
usemtl Material
s off
f 1//1 4//1 6//1 3//1 8//1 2//1
f 33//2 1//2 2//2 7//2 34//2
f 8//3 3//3 44//3
f 6//4 4//4 41//4
f 1//5 33//5 36//5 5//5 4//5
f 41//4 4//4 36//4
f 35//6 6//6 41//6
f 3//6 6//6 35//6
f 44//3 3//3 35//3
f 2//7 8//7 34//7
f 34//7 8//7 44//7
f 9//8 10//8 16//8 11//8 14//8 12//8
f 47//9 48//9 15//9 10//9 9//9
f 16//10 58//10 11//10
f 14//11 55//11 12//11
f 9//12 12//12 13//12 50//12 47//12
f 55//11 50//11 12//11
f 49//13 55//13 14//13
f 11//13 49//13 14//13
f 58//10 49//10 11//10
f 10//7 48//7 16//7
f 48//7 58//7 16//7
f 17//14 18//14 24//14 19//14 22//14 20//14
f 61//15 62//15 23//15 18//15 17//15
f 24//16 72//16 19//16
f 22//4 69//4 20//4
f 17//17 20//17 21//17 64//17 61//17
f 69//4 64//4 20//4
f 63//18 69//18 22//18
f 19//18 63//18 22//18
f 72//16 63//16 19//16
f 18//19 62//19 24//19
f 62//19 72//19 24//19
f 25//20 28//20 30//20 27//20 32//20 26//20
f 75//21 25//21 26//21 31//21 76//21
f 32//22 27//22 86//22
f 30//11 28//11 83//11
f 25//23 75//23 78//23 29//23 28//23
f 83//11 28//11 78//11
f 77//24 30//24 83//24
f 27//24 30//24 77//24
f 86//22 27//22 77//22
f 26//19 32//19 76//19
f 76//19 32//19 86//19
f 33//25 36//25 41//25 35//25 44//25 34//25
f 37//26 38//26 46//26 39//26 43//26 40//26
f 33//2 34//2 45//2 38//2 37//2
f 46//3 44//3 39//3
f 43//4 41//4 40//4
f 37//5 40//5 42//5 36//5 33//5
f 41//4 36//4 40//4
f 35//6 41//6 43//6
f 39//6 35//6 43//6
f 44//3 35//3 39//3
f 38//7 34//7 46//7
f 34//7 44//7 46//7
f 47//25 48//25 58//25 49//25 55//25 50//25
f 51//27 54//27 57//27 53//27 60//27 52//27
f 47//9 51//9 52//9 59//9 48//9
f 60//10 53//10 58//10
f 57//11 54//11 55//11
f 51//12 47//12 50//12 56//12 54//12
f 55//11 54//11 50//11
f 49//13 57//13 55//13
f 53//13 57//13 49//13
f 58//10 53//10 49//10
f 52//7 60//7 48//7
f 48//7 60//7 58//7
f 61//25 62//25 72//25 63//25 69//25 64//25
f 65//28 68//28 71//28 67//28 74//28 66//28
f 61//15 65//15 66//15 73//15 62//15
f 74//16 67//16 72//16
f 71//4 68//4 69//4
f 65//17 61//17 64//17 70//17 68//17
f 69//4 68//4 64//4
f 63//18 71//18 69//18
f 67//18 71//18 63//18
f 72//16 67//16 63//16
f 66//19 74//19 62//19
f 62//19 74//19 72//19
f 75//25 78//25 83//25 77//25 86//25 76//25
f 79//29 80//29 88//29 81//29 85//29 82//29
f 75//21 76//21 87//21 80//21 79//21
f 88//22 86//22 81//22
f 85//11 83//11 82//11
f 79//23 82//23 84//23 78//23 75//23
f 83//11 78//11 82//11
f 77//24 83//24 85//24
f 81//24 77//24 85//24
f 86//22 77//22 81//22
f 80//19 76//19 88//19
f 76//19 86//19 88//19
