# Blender v2.79 (sub 0) OBJ File: 'segment.blend'
# www.blender.org
mtllib segment.mtl
o Cube
v 0.549861 0.355775 -0.645164
v -0.199796 0.355775 -0.646011
v 0.549861 0.355775 0.645164
v 0.132146 0.355775 0.000000
v -0.606940 0.355775 0.000000
v -0.199796 0.355775 0.646011
v 0.847382 0.000000 -0.855140
v -0.375298 0.000000 -0.855141
v 0.549861 -0.355775 -0.645164
v -0.199796 -0.355775 -0.646011
v 0.847382 0.000000 0.855140
v 0.285555 0.000000 0.000000
v -0.937125 0.000000 0.000000
v -0.375298 0.000000 0.855141
v 0.549861 -0.355775 0.645164
v 0.132146 -0.355775 0.000000
v -0.606940 -0.355775 0.000000
v -0.199796 -0.355775 0.646011
vn 0.0000 1.0000 0.0000
vn 0.7855 0.3464 0.5128
vn -0.6700 0.6033 -0.4325
vn 0.0004 0.5076 -0.8616
vn 0.7855 0.3464 -0.5128
vn 0.0000 0.0000 -1.0000
vn -0.6700 0.6033 0.4325
vn 0.0004 0.5076 0.8616
vn 0.0000 -1.0000 0.0000
vn 0.7855 -0.3464 0.5128
vn -0.6700 -0.6033 -0.4325
vn 0.0004 -0.5076 -0.8616
vn 0.7855 -0.3464 -0.5128
vn -0.6700 -0.6033 0.4325
vn 0.0004 -0.5076 0.8616
usemtl Material
s off
f 1//1 2//1 5//1 4//1
f 7//2 1//2 4//2 12//2
f 13//3 5//3 2//3 8//3
f 1//4 7//4 8//4 2//4
f 3//1 4//1 5//1 6//1
f 11//5 12//5 4//5 3//5
f 12//6 13//6 5//6 4//6
f 13//7 14//7 6//7 5//7
f 3//8 6//8 14//8 11//8
f 7//1 8//1 13//1 12//1
f 9//9 16//9 17//9 10//9
f 7//10 12//10 16//10 9//10
f 13//11 8//11 10//11 17//11
f 9//12 10//12 8//12 7//12
f 11//1 12//1 13//1 14//1
f 15//9 18//9 17//9 16//9
f 11//13 15//13 16//13 12//13
f 12//6 16//6 17//6 13//6
f 13//14 17//14 18//14 14//14
f 15//15 11//15 14//15 18//15
