# Blender v2.79 (sub 0) OBJ File: 'ship.blend'
# www.blender.org
mtllib ship.mtl
o Cube
v 1.018655 -0.141680 1.157686
v 0.000000 -0.019407 -0.999238
v -1.018655 -0.141680 1.157686
v 0.000000 -0.377438 0.771923
v 1.018655 0.141680 1.157686
v 1.146955 0.000000 1.309047
v 0.000000 0.019407 -0.999238
v -1.018655 0.141680 1.157686
v 0.000000 0.377438 0.771923
v 0.000000 0.000000 -0.999237
v -1.146955 0.000000 1.309047
v 0.000000 0.000000 1.038435
vn 0.2890 -0.9383 -0.1897
vn 0.8592 -0.2854 -0.4245
vn -0.1744 -0.5909 0.7876
vn -0.2890 -0.9383 -0.1897
vn -0.8592 -0.2854 -0.4245
vn 0.1744 -0.5909 0.7876
vn 1.0000 0.0000 0.0000
vn 0.2890 0.9383 -0.1897
vn 0.0000 -1.0000 0.0000
vn 0.8592 0.2854 -0.4245
vn -0.1744 0.5909 0.7876
vn -0.2890 0.9383 -0.1897
vn -0.8592 0.2854 -0.4245
vn 0.1744 0.5909 0.7876
usemtl Material
s off
f 2//1 1//1 4//1
f 2//2 10//2 6//2 1//2
f 1//3 6//3 12//3 4//3
f 2//4 4//4 3//4
f 2//5 3//5 11//5 10//5
f 3//6 4//6 12//6 11//6
f 4//7 2//7 10//7 12//7
f 7//8 9//8 5//8
f 10//9 6//9 12//9
f 7//10 5//10 6//10 10//10
f 5//11 9//11 12//11 6//11
f 7//12 8//12 9//12
f 10//9 12//9 11//9
f 7//13 10//13 11//13 8//13
f 8//14 11//14 12//14 9//14
f 9//7 12//7 10//7 7//7
