# Blender v2.79 (sub 0) OBJ File: 'squareTarget.blend'
# www.blender.org
mtllib squareTarget.mtl
o Cube
v 1.575597 0.156314 -1.601386
v 1.575596 0.156314 -0.300000
v 1.200451 0.156314 -1.200028
v 0.300000 0.156314 -1.601387
v 0.300000 0.082909 -1.601387
v 0.300000 0.156314 -1.199972
v 1.575596 0.082909 -0.300000
v 1.199549 0.156314 -0.300000
v -1.575597 0.156314 -1.601386
v -1.575596 0.156314 -0.300000
v -1.200451 0.156314 -1.200028
v -0.300000 0.156314 -1.601387
v -0.300000 0.082909 -1.601387
v -0.300000 0.156314 -1.199972
v -1.575596 0.082909 -0.300000
v -1.199549 0.156314 -0.300000
v 1.575597 0.156314 1.601386
v 1.575596 0.156314 0.300000
v 1.200451 0.156314 1.200028
v 0.300000 0.156314 1.601387
v 0.300000 0.082909 1.601387
v 0.300000 0.156314 1.199972
v 1.575596 0.082909 0.300000
v 1.199549 0.156314 0.300000
v -1.575597 0.156314 1.601386
v -1.575596 0.156314 0.300000
v -1.200451 0.156314 1.200028
v -0.300000 0.156314 1.601387
v -0.300000 0.082909 1.601387
v -0.300000 0.156314 1.199972
v -1.575596 0.082909 0.300000
v -1.199549 0.156314 0.300000
v 1.575596 0.000000 -1.601387
v 1.575596 0.000000 -0.300000
v 1.200451 0.000000 -1.200028
v 0.300000 0.000000 -1.601387
v 1.575597 -0.156314 -1.601386
v 1.575596 -0.156314 -0.300000
v 1.200451 -0.156314 -1.200028
v 0.300000 -0.156314 -1.601387
v 0.300000 0.000000 -1.199973
v 0.300000 -0.082909 -1.601387
v 0.300000 -0.156314 -1.199972
v 1.199550 0.000000 -0.300000
v 1.575596 -0.082909 -0.300000
v 1.199549 -0.156314 -0.300000
v -1.575596 0.000000 -1.601387
v -1.575596 0.000000 -0.300000
v -1.200451 0.000000 -1.200028
v -0.300000 0.000000 -1.601387
v -1.575597 -0.156314 -1.601386
v -1.575596 -0.156314 -0.300000
v -1.200451 -0.156314 -1.200028
v -0.300000 -0.156314 -1.601387
v -0.300000 0.000000 -1.199973
v -0.300000 -0.082909 -1.601387
v -0.300000 -0.156314 -1.199972
v -1.199550 0.000000 -0.300000
v -1.575596 -0.082909 -0.300000
v -1.199549 -0.156314 -0.300000
v 1.575596 0.000000 1.601387
v 1.575596 0.000000 0.300000
v 1.200451 0.000000 1.200028
v 0.300000 0.000000 1.601387
v 1.575597 -0.156314 1.601386
v 1.575596 -0.156314 0.300000
v 1.200451 -0.156314 1.200028
v 0.300000 -0.156314 1.601387
v 0.300000 0.000000 1.199973
v 0.300000 -0.082909 1.601387
v 0.300000 -0.156314 1.199972
v 1.199550 0.000000 0.300000
v 1.575596 -0.082909 0.300000
v 1.199549 -0.156314 0.300000
v -1.575596 0.000000 1.601387
v -1.575596 0.000000 0.300000
v -1.200451 0.000000 1.200028
v -0.300000 0.000000 1.601387
v -1.575597 -0.156314 1.601386
v -1.575596 -0.156314 0.300000
v -1.200451 -0.156314 1.200028
v -0.300000 -0.156314 1.601387
v -0.300000 0.000000 1.199973
v -0.300000 -0.082909 1.601387
v -0.300000 -0.156314 1.199972
v -1.199550 0.000000 0.300000
v -1.575596 -0.082909 0.300000
v -1.199549 -0.156314 0.300000
vn 0.0000 1.0000 0.0000
vn 1.0000 0.0000 0.0000
vn -1.0000 0.0000 -0.0010
vn -1.0000 0.0000 0.0000
vn 0.0000 0.0000 -1.0000
vn 0.0001 -0.0000 1.0000
vn 0.0000 0.0000 1.0000
vn 1.0000 0.0000 -0.0010
vn -0.0001 -0.0000 1.0000
vn -1.0000 0.0000 0.0010
vn 0.0001 -0.0000 -1.0000
vn 1.0000 0.0000 0.0010
vn -0.0001 -0.0000 -1.0000
vn 0.0000 -1.0000 0.0000
usemtl Material
s off
f 1//1 4//1 6//1 3//1 8//1 2//1
f 33//2 1//2 2//2 7//2 34//2
f 8//3 3//3 44//3
f 6//4 4//4 41//4
f 1//5 33//5 36//5 5//5 4//5
f 41//4 4//4 36//4
f 35//6 6//6 41//6
f 3//6 6//6 35//6
f 44//3 3//3 35//3
f 2//7 8//7 34//7
f 34//7 8//7 44//7
f 9//1 10//1 16//1 11//1 14//1 12//1
f 47//4 48//4 15//4 10//4 9//4
f 16//8 58//8 11//8
f 14//2 55//2 12//2
f 9//5 12//5 13//5 50//5 47//5
f 55//2 50//2 12//2
f 49//9 55//9 14//9
f 11//9 49//9 14//9
f 58//8 49//8 11//8
f 10//7 48//7 16//7
f 48//7 58//7 16//7
f 17//1 18//1 24//1 19//1 22//1 20//1
f 61//2 62//2 23//2 18//2 17//2
f 24//10 72//10 19//10
f 22//4 69//4 20//4
f 17//7 20//7 21//7 64//7 61//7
f 69//4 64//4 20//4
f 63//11 69//11 22//11
f 19//11 63//11 22//11
f 72//10 63//10 19//10
f 18//5 62//5 24//5
f 62//5 72//5 24//5
f 25//1 28//1 30//1 27//1 32//1 26//1
f 75//4 25//4 26//4 31//4 76//4
f 32//12 27//12 86//12
f 30//2 28//2 83//2
f 25//7 75//7 78//7 29//7 28//7
f 83//2 28//2 78//2
f 77//13 30//13 83//13
f 27//13 30//13 77//13
f 86//12 27//12 77//12
f 26//5 32//5 76//5
f 76//5 32//5 86//5
f 33//1 36//1 41//1 35//1 44//1 34//1
f 37//14 38//14 46//14 39//14 43//14 40//14
f 33//2 34//2 45//2 38//2 37//2
f 46//3 44//3 39//3
f 43//4 41//4 40//4
f 37//5 40//5 42//5 36//5 33//5
f 41//4 36//4 40//4
f 35//6 41//6 43//6
f 39//6 35//6 43//6
f 44//3 35//3 39//3
f 38//7 34//7 46//7
f 34//7 44//7 46//7
f 47//1 48//1 58//1 49//1 55//1 50//1
f 51//14 54//14 57//14 53//14 60//14 52//14
f 47//4 51//4 52//4 59//4 48//4
f 60//8 53//8 58//8
f 57//2 54//2 55//2
f 51//5 47//5 50//5 56//5 54//5
f 55//2 54//2 50//2
f 49//9 57//9 55//9
f 53//9 57//9 49//9
f 58//8 53//8 49//8
f 52//7 60//7 48//7
f 48//7 60//7 58//7
f 61//1 62//1 72//1 63//1 69//1 64//1
f 65//14 68//14 71//14 67//14 74//14 66//14
f 61//2 65//2 66//2 73//2 62//2
f 74//10 67//10 72//10
f 71//4 68//4 69//4
f 65//7 61//7 64//7 70//7 68//7
f 69//4 68//4 64//4
f 63//11 71//11 69//11
f 67//11 71//11 63//11
f 72//10 67//10 63//10
f 66//5 74//5 62//5
f 62//5 74//5 72//5
f 75//1 78//1 83//1 77//1 86//1 76//1
f 79//14 80//14 88//14 81//14 85//14 82//14
f 75//4 76//4 87//4 80//4 79//4
f 88//12 86//12 81//12
f 85//2 83//2 82//2
f 79//7 82//7 84//7 78//7 75//7
f 83//2 78//2 82//2
f 77//13 83//13 85//13
f 81//13 77//13 85//13
f 86//12 77//12 81//12
f 80//5 76//5 88//5
f 76//5 86//5 88//5
